<mxfile host="app.diagrams.net" agent="Mozilla/5.0 (Windows NT 10.0; Win64; x64) AppleWebKit/537.36 (KHTML, like Gecko) Chrome/133.0.0.0 Safari/537.36 Edg/133.0.0.0" version="26.0.16">
  <diagram name="Page-1" id="e56a1550-8fbb-45ad-956c-1786394a9013">
    <mxGraphModel dx="985" dy="1665" grid="0" gridSize="10" guides="1" tooltips="1" connect="1" arrows="1" fold="1" page="0" pageScale="1" pageWidth="1100" pageHeight="850" background="none" math="0" shadow="0">
      <root>
        <mxCell id="0" />
        <mxCell id="1" parent="0" />
        <mxCell id="t7EN4lz90MW7jezC_zGg-55" value="book" style="shape=table;startSize=30;container=1;collapsible=1;childLayout=tableLayout;fixedRows=1;rowLines=0;fontStyle=0;align=center;resizeLast=1;html=1;" vertex="1" parent="1">
          <mxGeometry x="1266.5882352941176" y="275.3333093979779" width="180" height="270" as="geometry" />
        </mxCell>
        <mxCell id="t7EN4lz90MW7jezC_zGg-56" value="" style="shape=tableRow;horizontal=0;startSize=0;swimlaneHead=0;swimlaneBody=0;fillColor=none;collapsible=0;dropTarget=0;points=[[0,0.5],[1,0.5]];portConstraint=eastwest;top=0;left=0;right=0;bottom=1;fontStyle=0" vertex="1" parent="t7EN4lz90MW7jezC_zGg-55">
          <mxGeometry y="30" width="180" height="30" as="geometry" />
        </mxCell>
        <mxCell id="t7EN4lz90MW7jezC_zGg-57" value="PK" style="shape=partialRectangle;connectable=0;fillColor=none;top=0;left=0;bottom=0;right=0;fontStyle=0;overflow=hidden;whiteSpace=wrap;html=1;" vertex="1" parent="t7EN4lz90MW7jezC_zGg-56">
          <mxGeometry width="30" height="30" as="geometry">
            <mxRectangle width="30" height="30" as="alternateBounds" />
          </mxGeometry>
        </mxCell>
        <mxCell id="t7EN4lz90MW7jezC_zGg-58" value="id_book" style="shape=partialRectangle;connectable=0;fillColor=none;top=0;left=0;bottom=0;right=0;align=left;spacingLeft=6;fontStyle=4;overflow=hidden;whiteSpace=wrap;html=1;" vertex="1" parent="t7EN4lz90MW7jezC_zGg-56">
          <mxGeometry x="30" width="150" height="30" as="geometry">
            <mxRectangle width="150" height="30" as="alternateBounds" />
          </mxGeometry>
        </mxCell>
        <mxCell id="t7EN4lz90MW7jezC_zGg-59" value="" style="shape=tableRow;horizontal=0;startSize=0;swimlaneHead=0;swimlaneBody=0;fillColor=none;collapsible=0;dropTarget=0;points=[[0,0.5],[1,0.5]];portConstraint=eastwest;top=0;left=0;right=0;bottom=0;fontStyle=0" vertex="1" parent="t7EN4lz90MW7jezC_zGg-55">
          <mxGeometry y="60" width="180" height="30" as="geometry" />
        </mxCell>
        <mxCell id="t7EN4lz90MW7jezC_zGg-60" value="" style="shape=partialRectangle;connectable=0;fillColor=none;top=0;left=0;bottom=0;right=0;editable=1;overflow=hidden;whiteSpace=wrap;html=1;fontStyle=0" vertex="1" parent="t7EN4lz90MW7jezC_zGg-59">
          <mxGeometry width="30" height="30" as="geometry">
            <mxRectangle width="30" height="30" as="alternateBounds" />
          </mxGeometry>
        </mxCell>
        <mxCell id="t7EN4lz90MW7jezC_zGg-61" value="title" style="shape=partialRectangle;connectable=0;fillColor=none;top=0;left=0;bottom=0;right=0;align=left;spacingLeft=6;overflow=hidden;whiteSpace=wrap;html=1;fontStyle=0" vertex="1" parent="t7EN4lz90MW7jezC_zGg-59">
          <mxGeometry x="30" width="150" height="30" as="geometry">
            <mxRectangle width="150" height="30" as="alternateBounds" />
          </mxGeometry>
        </mxCell>
        <mxCell id="t7EN4lz90MW7jezC_zGg-62" value="" style="shape=tableRow;horizontal=0;startSize=0;swimlaneHead=0;swimlaneBody=0;fillColor=none;collapsible=0;dropTarget=0;points=[[0,0.5],[1,0.5]];portConstraint=eastwest;top=0;left=0;right=0;bottom=0;fontStyle=0" vertex="1" parent="t7EN4lz90MW7jezC_zGg-55">
          <mxGeometry y="90" width="180" height="30" as="geometry" />
        </mxCell>
        <mxCell id="t7EN4lz90MW7jezC_zGg-63" value="" style="shape=partialRectangle;connectable=0;fillColor=none;top=0;left=0;bottom=0;right=0;editable=1;overflow=hidden;whiteSpace=wrap;html=1;fontStyle=0" vertex="1" parent="t7EN4lz90MW7jezC_zGg-62">
          <mxGeometry width="30" height="30" as="geometry">
            <mxRectangle width="30" height="30" as="alternateBounds" />
          </mxGeometry>
        </mxCell>
        <mxCell id="t7EN4lz90MW7jezC_zGg-64" value="price" style="shape=partialRectangle;connectable=0;fillColor=none;top=0;left=0;bottom=0;right=0;align=left;spacingLeft=6;overflow=hidden;whiteSpace=wrap;html=1;fontStyle=0" vertex="1" parent="t7EN4lz90MW7jezC_zGg-62">
          <mxGeometry x="30" width="150" height="30" as="geometry">
            <mxRectangle width="150" height="30" as="alternateBounds" />
          </mxGeometry>
        </mxCell>
        <mxCell id="t7EN4lz90MW7jezC_zGg-65" value="" style="shape=tableRow;horizontal=0;startSize=0;swimlaneHead=0;swimlaneBody=0;fillColor=none;collapsible=0;dropTarget=0;points=[[0,0.5],[1,0.5]];portConstraint=eastwest;top=0;left=0;right=0;bottom=0;fontStyle=0" vertex="1" parent="t7EN4lz90MW7jezC_zGg-55">
          <mxGeometry y="120" width="180" height="30" as="geometry" />
        </mxCell>
        <mxCell id="t7EN4lz90MW7jezC_zGg-66" value="" style="shape=partialRectangle;connectable=0;fillColor=none;top=0;left=0;bottom=0;right=0;editable=1;overflow=hidden;whiteSpace=wrap;html=1;fontStyle=0" vertex="1" parent="t7EN4lz90MW7jezC_zGg-65">
          <mxGeometry width="30" height="30" as="geometry">
            <mxRectangle width="30" height="30" as="alternateBounds" />
          </mxGeometry>
        </mxCell>
        <mxCell id="t7EN4lz90MW7jezC_zGg-67" value="stock" style="shape=partialRectangle;connectable=0;fillColor=none;top=0;left=0;bottom=0;right=0;align=left;spacingLeft=6;overflow=hidden;whiteSpace=wrap;html=1;fontStyle=0" vertex="1" parent="t7EN4lz90MW7jezC_zGg-65">
          <mxGeometry x="30" width="150" height="30" as="geometry">
            <mxRectangle width="150" height="30" as="alternateBounds" />
          </mxGeometry>
        </mxCell>
        <mxCell id="t7EN4lz90MW7jezC_zGg-236" style="shape=tableRow;horizontal=0;startSize=0;swimlaneHead=0;swimlaneBody=0;fillColor=none;collapsible=0;dropTarget=0;points=[[0,0.5],[1,0.5]];portConstraint=eastwest;top=0;left=0;right=0;bottom=0;fontStyle=0" vertex="1" parent="t7EN4lz90MW7jezC_zGg-55">
          <mxGeometry y="150" width="180" height="30" as="geometry" />
        </mxCell>
        <mxCell id="t7EN4lz90MW7jezC_zGg-237" style="shape=partialRectangle;connectable=0;fillColor=none;top=0;left=0;bottom=0;right=0;editable=1;overflow=hidden;whiteSpace=wrap;html=1;fontStyle=0" vertex="1" parent="t7EN4lz90MW7jezC_zGg-236">
          <mxGeometry width="30" height="30" as="geometry">
            <mxRectangle width="30" height="30" as="alternateBounds" />
          </mxGeometry>
        </mxCell>
        <mxCell id="t7EN4lz90MW7jezC_zGg-238" value="genre_id" style="shape=partialRectangle;connectable=0;fillColor=none;top=0;left=0;bottom=0;right=0;align=left;spacingLeft=6;overflow=hidden;whiteSpace=wrap;html=1;fontStyle=0" vertex="1" parent="t7EN4lz90MW7jezC_zGg-236">
          <mxGeometry x="30" width="150" height="30" as="geometry">
            <mxRectangle width="150" height="30" as="alternateBounds" />
          </mxGeometry>
        </mxCell>
        <mxCell id="t7EN4lz90MW7jezC_zGg-274" style="shape=tableRow;horizontal=0;startSize=0;swimlaneHead=0;swimlaneBody=0;fillColor=none;collapsible=0;dropTarget=0;points=[[0,0.5],[1,0.5]];portConstraint=eastwest;top=0;left=0;right=0;bottom=0;fontStyle=0" vertex="1" parent="t7EN4lz90MW7jezC_zGg-55">
          <mxGeometry y="180" width="180" height="30" as="geometry" />
        </mxCell>
        <mxCell id="t7EN4lz90MW7jezC_zGg-275" style="shape=partialRectangle;connectable=0;fillColor=none;top=0;left=0;bottom=0;right=0;editable=1;overflow=hidden;whiteSpace=wrap;html=1;fontStyle=0" vertex="1" parent="t7EN4lz90MW7jezC_zGg-274">
          <mxGeometry width="30" height="30" as="geometry">
            <mxRectangle width="30" height="30" as="alternateBounds" />
          </mxGeometry>
        </mxCell>
        <mxCell id="t7EN4lz90MW7jezC_zGg-276" value="description" style="shape=partialRectangle;connectable=0;fillColor=none;top=0;left=0;bottom=0;right=0;align=left;spacingLeft=6;overflow=hidden;whiteSpace=wrap;html=1;fontStyle=0" vertex="1" parent="t7EN4lz90MW7jezC_zGg-274">
          <mxGeometry x="30" width="150" height="30" as="geometry">
            <mxRectangle width="150" height="30" as="alternateBounds" />
          </mxGeometry>
        </mxCell>
        <mxCell id="t7EN4lz90MW7jezC_zGg-280" style="shape=tableRow;horizontal=0;startSize=0;swimlaneHead=0;swimlaneBody=0;fillColor=none;collapsible=0;dropTarget=0;points=[[0,0.5],[1,0.5]];portConstraint=eastwest;top=0;left=0;right=0;bottom=0;fontStyle=0" vertex="1" parent="t7EN4lz90MW7jezC_zGg-55">
          <mxGeometry y="210" width="180" height="30" as="geometry" />
        </mxCell>
        <mxCell id="t7EN4lz90MW7jezC_zGg-281" style="shape=partialRectangle;connectable=0;fillColor=none;top=0;left=0;bottom=0;right=0;editable=1;overflow=hidden;whiteSpace=wrap;html=1;fontStyle=0" vertex="1" parent="t7EN4lz90MW7jezC_zGg-280">
          <mxGeometry width="30" height="30" as="geometry">
            <mxRectangle width="30" height="30" as="alternateBounds" />
          </mxGeometry>
        </mxCell>
        <mxCell id="t7EN4lz90MW7jezC_zGg-282" value="publication_date" style="shape=partialRectangle;connectable=0;fillColor=none;top=0;left=0;bottom=0;right=0;align=left;spacingLeft=6;overflow=hidden;whiteSpace=wrap;html=1;fontStyle=0" vertex="1" parent="t7EN4lz90MW7jezC_zGg-280">
          <mxGeometry x="30" width="150" height="30" as="geometry">
            <mxRectangle width="150" height="30" as="alternateBounds" />
          </mxGeometry>
        </mxCell>
        <mxCell id="t7EN4lz90MW7jezC_zGg-283" style="shape=tableRow;horizontal=0;startSize=0;swimlaneHead=0;swimlaneBody=0;fillColor=none;collapsible=0;dropTarget=0;points=[[0,0.5],[1,0.5]];portConstraint=eastwest;top=0;left=0;right=0;bottom=0;fontStyle=0" vertex="1" parent="t7EN4lz90MW7jezC_zGg-55">
          <mxGeometry y="240" width="180" height="30" as="geometry" />
        </mxCell>
        <mxCell id="t7EN4lz90MW7jezC_zGg-284" style="shape=partialRectangle;connectable=0;fillColor=none;top=0;left=0;bottom=0;right=0;editable=1;overflow=hidden;whiteSpace=wrap;html=1;fontStyle=0" vertex="1" parent="t7EN4lz90MW7jezC_zGg-283">
          <mxGeometry width="30" height="30" as="geometry">
            <mxRectangle width="30" height="30" as="alternateBounds" />
          </mxGeometry>
        </mxCell>
        <mxCell id="t7EN4lz90MW7jezC_zGg-285" value="author_id" style="shape=partialRectangle;connectable=0;fillColor=none;top=0;left=0;bottom=0;right=0;align=left;spacingLeft=6;overflow=hidden;whiteSpace=wrap;html=1;fontStyle=0" vertex="1" parent="t7EN4lz90MW7jezC_zGg-283">
          <mxGeometry x="30" width="150" height="30" as="geometry">
            <mxRectangle width="150" height="30" as="alternateBounds" />
          </mxGeometry>
        </mxCell>
        <mxCell id="t7EN4lz90MW7jezC_zGg-80" value="orderdetails" style="shape=table;startSize=30;container=1;collapsible=1;childLayout=tableLayout;fixedRows=1;rowLines=0;fontStyle=0;align=center;resizeLast=1;html=1;" vertex="1" parent="1">
          <mxGeometry x="1266.9082352941177" y="619.0033093979779" width="178.68062337239593" height="180" as="geometry" />
        </mxCell>
        <mxCell id="t7EN4lz90MW7jezC_zGg-81" value="" style="shape=tableRow;horizontal=0;startSize=0;swimlaneHead=0;swimlaneBody=0;fillColor=none;collapsible=0;dropTarget=0;points=[[0,0.5],[1,0.5]];portConstraint=eastwest;top=0;left=0;right=0;bottom=1;fontStyle=0" vertex="1" parent="t7EN4lz90MW7jezC_zGg-80">
          <mxGeometry y="30" width="178.68062337239593" height="30" as="geometry" />
        </mxCell>
        <mxCell id="t7EN4lz90MW7jezC_zGg-82" value="PK" style="shape=partialRectangle;connectable=0;fillColor=none;top=0;left=0;bottom=0;right=0;fontStyle=0;overflow=hidden;whiteSpace=wrap;html=1;" vertex="1" parent="t7EN4lz90MW7jezC_zGg-81">
          <mxGeometry width="30" height="30" as="geometry">
            <mxRectangle width="30" height="30" as="alternateBounds" />
          </mxGeometry>
        </mxCell>
        <mxCell id="t7EN4lz90MW7jezC_zGg-83" value="ID" style="shape=partialRectangle;connectable=0;fillColor=none;top=0;left=0;bottom=0;right=0;align=left;spacingLeft=6;fontStyle=4;overflow=hidden;whiteSpace=wrap;html=1;" vertex="1" parent="t7EN4lz90MW7jezC_zGg-81">
          <mxGeometry x="30" width="148.68062337239593" height="30" as="geometry">
            <mxRectangle width="148.68062337239593" height="30" as="alternateBounds" />
          </mxGeometry>
        </mxCell>
        <mxCell id="t7EN4lz90MW7jezC_zGg-84" value="" style="shape=tableRow;horizontal=0;startSize=0;swimlaneHead=0;swimlaneBody=0;fillColor=none;collapsible=0;dropTarget=0;points=[[0,0.5],[1,0.5]];portConstraint=eastwest;top=0;left=0;right=0;bottom=0;fontStyle=0" vertex="1" parent="t7EN4lz90MW7jezC_zGg-80">
          <mxGeometry y="60" width="178.68062337239593" height="30" as="geometry" />
        </mxCell>
        <mxCell id="t7EN4lz90MW7jezC_zGg-85" value="FK" style="shape=partialRectangle;connectable=0;fillColor=none;top=0;left=0;bottom=0;right=0;editable=1;overflow=hidden;whiteSpace=wrap;html=1;fontStyle=0" vertex="1" parent="t7EN4lz90MW7jezC_zGg-84">
          <mxGeometry width="30" height="30" as="geometry">
            <mxRectangle width="30" height="30" as="alternateBounds" />
          </mxGeometry>
        </mxCell>
        <mxCell id="t7EN4lz90MW7jezC_zGg-86" value="order_id" style="shape=partialRectangle;connectable=0;fillColor=none;top=0;left=0;bottom=0;right=0;align=left;spacingLeft=6;overflow=hidden;whiteSpace=wrap;html=1;fontStyle=0" vertex="1" parent="t7EN4lz90MW7jezC_zGg-84">
          <mxGeometry x="30" width="148.68062337239593" height="30" as="geometry">
            <mxRectangle width="148.68062337239593" height="30" as="alternateBounds" />
          </mxGeometry>
        </mxCell>
        <mxCell id="t7EN4lz90MW7jezC_zGg-87" value="" style="shape=tableRow;horizontal=0;startSize=0;swimlaneHead=0;swimlaneBody=0;fillColor=none;collapsible=0;dropTarget=0;points=[[0,0.5],[1,0.5]];portConstraint=eastwest;top=0;left=0;right=0;bottom=0;fontStyle=0" vertex="1" parent="t7EN4lz90MW7jezC_zGg-80">
          <mxGeometry y="90" width="178.68062337239593" height="30" as="geometry" />
        </mxCell>
        <mxCell id="t7EN4lz90MW7jezC_zGg-88" value="FK" style="shape=partialRectangle;connectable=0;fillColor=none;top=0;left=0;bottom=0;right=0;editable=1;overflow=hidden;whiteSpace=wrap;html=1;fontStyle=0" vertex="1" parent="t7EN4lz90MW7jezC_zGg-87">
          <mxGeometry width="30" height="30" as="geometry">
            <mxRectangle width="30" height="30" as="alternateBounds" />
          </mxGeometry>
        </mxCell>
        <mxCell id="t7EN4lz90MW7jezC_zGg-89" value="product_id" style="shape=partialRectangle;connectable=0;fillColor=none;top=0;left=0;bottom=0;right=0;align=left;spacingLeft=6;overflow=hidden;whiteSpace=wrap;html=1;fontStyle=0" vertex="1" parent="t7EN4lz90MW7jezC_zGg-87">
          <mxGeometry x="30" width="148.68062337239593" height="30" as="geometry">
            <mxRectangle width="148.68062337239593" height="30" as="alternateBounds" />
          </mxGeometry>
        </mxCell>
        <mxCell id="t7EN4lz90MW7jezC_zGg-90" value="" style="shape=tableRow;horizontal=0;startSize=0;swimlaneHead=0;swimlaneBody=0;fillColor=none;collapsible=0;dropTarget=0;points=[[0,0.5],[1,0.5]];portConstraint=eastwest;top=0;left=0;right=0;bottom=0;fontStyle=0" vertex="1" parent="t7EN4lz90MW7jezC_zGg-80">
          <mxGeometry y="120" width="178.68062337239593" height="30" as="geometry" />
        </mxCell>
        <mxCell id="t7EN4lz90MW7jezC_zGg-91" value="" style="shape=partialRectangle;connectable=0;fillColor=none;top=0;left=0;bottom=0;right=0;editable=1;overflow=hidden;whiteSpace=wrap;html=1;fontStyle=0" vertex="1" parent="t7EN4lz90MW7jezC_zGg-90">
          <mxGeometry width="30" height="30" as="geometry">
            <mxRectangle width="30" height="30" as="alternateBounds" />
          </mxGeometry>
        </mxCell>
        <mxCell id="t7EN4lz90MW7jezC_zGg-92" value="count" style="shape=partialRectangle;connectable=0;fillColor=none;top=0;left=0;bottom=0;right=0;align=left;spacingLeft=6;overflow=hidden;whiteSpace=wrap;html=1;fontStyle=0" vertex="1" parent="t7EN4lz90MW7jezC_zGg-90">
          <mxGeometry x="30" width="148.68062337239593" height="30" as="geometry">
            <mxRectangle width="148.68062337239593" height="30" as="alternateBounds" />
          </mxGeometry>
        </mxCell>
        <mxCell id="t7EN4lz90MW7jezC_zGg-255" style="shape=tableRow;horizontal=0;startSize=0;swimlaneHead=0;swimlaneBody=0;fillColor=none;collapsible=0;dropTarget=0;points=[[0,0.5],[1,0.5]];portConstraint=eastwest;top=0;left=0;right=0;bottom=0;fontStyle=0" vertex="1" parent="t7EN4lz90MW7jezC_zGg-80">
          <mxGeometry y="150" width="178.68062337239593" height="30" as="geometry" />
        </mxCell>
        <mxCell id="t7EN4lz90MW7jezC_zGg-256" style="shape=partialRectangle;connectable=0;fillColor=none;top=0;left=0;bottom=0;right=0;editable=1;overflow=hidden;whiteSpace=wrap;html=1;fontStyle=0" vertex="1" parent="t7EN4lz90MW7jezC_zGg-255">
          <mxGeometry width="30" height="30" as="geometry">
            <mxRectangle width="30" height="30" as="alternateBounds" />
          </mxGeometry>
        </mxCell>
        <mxCell id="t7EN4lz90MW7jezC_zGg-257" value="date_order" style="shape=partialRectangle;connectable=0;fillColor=none;top=0;left=0;bottom=0;right=0;align=left;spacingLeft=6;overflow=hidden;whiteSpace=wrap;html=1;fontStyle=0" vertex="1" parent="t7EN4lz90MW7jezC_zGg-255">
          <mxGeometry x="30" width="148.68062337239593" height="30" as="geometry">
            <mxRectangle width="148.68062337239593" height="30" as="alternateBounds" />
          </mxGeometry>
        </mxCell>
        <mxCell id="t7EN4lz90MW7jezC_zGg-99" value="payments" style="shape=table;startSize=30;container=1;collapsible=1;childLayout=tableLayout;fixedRows=1;rowLines=0;fontStyle=0;align=center;resizeLast=1;html=1;" vertex="1" parent="1">
          <mxGeometry x="1517.9982352941176" y="275.3333093979779" width="180" height="120.41668701171875" as="geometry" />
        </mxCell>
        <mxCell id="t7EN4lz90MW7jezC_zGg-100" value="" style="shape=tableRow;horizontal=0;startSize=0;swimlaneHead=0;swimlaneBody=0;fillColor=none;collapsible=0;dropTarget=0;points=[[0,0.5],[1,0.5]];portConstraint=eastwest;top=0;left=0;right=0;bottom=1;fontStyle=0" vertex="1" parent="t7EN4lz90MW7jezC_zGg-99">
          <mxGeometry y="30" width="180" height="30" as="geometry" />
        </mxCell>
        <mxCell id="t7EN4lz90MW7jezC_zGg-101" value="PK" style="shape=partialRectangle;connectable=0;fillColor=none;top=0;left=0;bottom=0;right=0;fontStyle=0;overflow=hidden;whiteSpace=wrap;html=1;" vertex="1" parent="t7EN4lz90MW7jezC_zGg-100">
          <mxGeometry width="30" height="30" as="geometry">
            <mxRectangle width="30" height="30" as="alternateBounds" />
          </mxGeometry>
        </mxCell>
        <mxCell id="t7EN4lz90MW7jezC_zGg-102" value="id" style="shape=partialRectangle;connectable=0;fillColor=none;top=0;left=0;bottom=0;right=0;align=left;spacingLeft=6;fontStyle=4;overflow=hidden;whiteSpace=wrap;html=1;" vertex="1" parent="t7EN4lz90MW7jezC_zGg-100">
          <mxGeometry x="30" width="150" height="30" as="geometry">
            <mxRectangle width="150" height="30" as="alternateBounds" />
          </mxGeometry>
        </mxCell>
        <mxCell id="t7EN4lz90MW7jezC_zGg-103" value="" style="shape=tableRow;horizontal=0;startSize=0;swimlaneHead=0;swimlaneBody=0;fillColor=none;collapsible=0;dropTarget=0;points=[[0,0.5],[1,0.5]];portConstraint=eastwest;top=0;left=0;right=0;bottom=0;fontStyle=0" vertex="1" parent="t7EN4lz90MW7jezC_zGg-99">
          <mxGeometry y="60" width="180" height="30" as="geometry" />
        </mxCell>
        <mxCell id="t7EN4lz90MW7jezC_zGg-104" value="FK" style="shape=partialRectangle;connectable=0;fillColor=none;top=0;left=0;bottom=0;right=0;editable=1;overflow=hidden;whiteSpace=wrap;html=1;fontStyle=0" vertex="1" parent="t7EN4lz90MW7jezC_zGg-103">
          <mxGeometry width="30" height="30" as="geometry">
            <mxRectangle width="30" height="30" as="alternateBounds" />
          </mxGeometry>
        </mxCell>
        <mxCell id="t7EN4lz90MW7jezC_zGg-105" value="order_id" style="shape=partialRectangle;connectable=0;fillColor=none;top=0;left=0;bottom=0;right=0;align=left;spacingLeft=6;overflow=hidden;whiteSpace=wrap;html=1;fontStyle=0" vertex="1" parent="t7EN4lz90MW7jezC_zGg-103">
          <mxGeometry x="30" width="150" height="30" as="geometry">
            <mxRectangle width="150" height="30" as="alternateBounds" />
          </mxGeometry>
        </mxCell>
        <mxCell id="t7EN4lz90MW7jezC_zGg-106" value="" style="shape=tableRow;horizontal=0;startSize=0;swimlaneHead=0;swimlaneBody=0;fillColor=none;collapsible=0;dropTarget=0;points=[[0,0.5],[1,0.5]];portConstraint=eastwest;top=0;left=0;right=0;bottom=0;fontStyle=0" vertex="1" parent="t7EN4lz90MW7jezC_zGg-99">
          <mxGeometry y="90" width="180" height="30" as="geometry" />
        </mxCell>
        <mxCell id="t7EN4lz90MW7jezC_zGg-107" value="" style="shape=partialRectangle;connectable=0;fillColor=none;top=0;left=0;bottom=0;right=0;editable=1;overflow=hidden;whiteSpace=wrap;html=1;fontStyle=0" vertex="1" parent="t7EN4lz90MW7jezC_zGg-106">
          <mxGeometry width="30" height="30" as="geometry">
            <mxRectangle width="30" height="30" as="alternateBounds" />
          </mxGeometry>
        </mxCell>
        <mxCell id="t7EN4lz90MW7jezC_zGg-108" value="sum" style="shape=partialRectangle;connectable=0;fillColor=none;top=0;left=0;bottom=0;right=0;align=left;spacingLeft=6;overflow=hidden;whiteSpace=wrap;html=1;fontStyle=0" vertex="1" parent="t7EN4lz90MW7jezC_zGg-106">
          <mxGeometry x="30" width="150" height="30" as="geometry">
            <mxRectangle width="150" height="30" as="alternateBounds" />
          </mxGeometry>
        </mxCell>
        <mxCell id="t7EN4lz90MW7jezC_zGg-115" value="Orders" style="shape=table;startSize=30;container=1;collapsible=1;childLayout=tableLayout;fixedRows=1;rowLines=0;fontStyle=0;align=center;resizeLast=1;html=1;" vertex="1" parent="1">
          <mxGeometry x="1010.0182352941175" y="619.0033093979779" width="180" height="186.33333333333348" as="geometry" />
        </mxCell>
        <mxCell id="t7EN4lz90MW7jezC_zGg-116" value="" style="shape=tableRow;horizontal=0;startSize=0;swimlaneHead=0;swimlaneBody=0;fillColor=none;collapsible=0;dropTarget=0;points=[[0,0.5],[1,0.5]];portConstraint=eastwest;top=0;left=0;right=0;bottom=1;fontStyle=0" vertex="1" parent="t7EN4lz90MW7jezC_zGg-115">
          <mxGeometry y="30" width="180" height="30" as="geometry" />
        </mxCell>
        <mxCell id="t7EN4lz90MW7jezC_zGg-117" value="PK" style="shape=partialRectangle;connectable=0;fillColor=none;top=0;left=0;bottom=0;right=0;fontStyle=0;overflow=hidden;whiteSpace=wrap;html=1;" vertex="1" parent="t7EN4lz90MW7jezC_zGg-116">
          <mxGeometry width="30" height="30" as="geometry">
            <mxRectangle width="30" height="30" as="alternateBounds" />
          </mxGeometry>
        </mxCell>
        <mxCell id="t7EN4lz90MW7jezC_zGg-118" value="id_order" style="shape=partialRectangle;connectable=0;fillColor=none;top=0;left=0;bottom=0;right=0;align=left;spacingLeft=6;fontStyle=4;overflow=hidden;whiteSpace=wrap;html=1;" vertex="1" parent="t7EN4lz90MW7jezC_zGg-116">
          <mxGeometry x="30" width="150" height="30" as="geometry">
            <mxRectangle width="150" height="30" as="alternateBounds" />
          </mxGeometry>
        </mxCell>
        <mxCell id="t7EN4lz90MW7jezC_zGg-119" value="" style="shape=tableRow;horizontal=0;startSize=0;swimlaneHead=0;swimlaneBody=0;fillColor=none;collapsible=0;dropTarget=0;points=[[0,0.5],[1,0.5]];portConstraint=eastwest;top=0;left=0;right=0;bottom=0;fontStyle=0" vertex="1" parent="t7EN4lz90MW7jezC_zGg-115">
          <mxGeometry y="60" width="180" height="30" as="geometry" />
        </mxCell>
        <mxCell id="t7EN4lz90MW7jezC_zGg-120" value="FK" style="shape=partialRectangle;connectable=0;fillColor=none;top=0;left=0;bottom=0;right=0;editable=1;overflow=hidden;whiteSpace=wrap;html=1;fontStyle=0" vertex="1" parent="t7EN4lz90MW7jezC_zGg-119">
          <mxGeometry width="30" height="30" as="geometry">
            <mxRectangle width="30" height="30" as="alternateBounds" />
          </mxGeometry>
        </mxCell>
        <mxCell id="t7EN4lz90MW7jezC_zGg-121" value="user_id" style="shape=partialRectangle;connectable=0;fillColor=none;top=0;left=0;bottom=0;right=0;align=left;spacingLeft=6;overflow=hidden;whiteSpace=wrap;html=1;fontStyle=0" vertex="1" parent="t7EN4lz90MW7jezC_zGg-119">
          <mxGeometry x="30" width="150" height="30" as="geometry">
            <mxRectangle width="150" height="30" as="alternateBounds" />
          </mxGeometry>
        </mxCell>
        <mxCell id="t7EN4lz90MW7jezC_zGg-122" value="" style="shape=tableRow;horizontal=0;startSize=0;swimlaneHead=0;swimlaneBody=0;fillColor=none;collapsible=0;dropTarget=0;points=[[0,0.5],[1,0.5]];portConstraint=eastwest;top=0;left=0;right=0;bottom=0;fontStyle=0" vertex="1" parent="t7EN4lz90MW7jezC_zGg-115">
          <mxGeometry y="90" width="180" height="30" as="geometry" />
        </mxCell>
        <mxCell id="t7EN4lz90MW7jezC_zGg-123" value="" style="shape=partialRectangle;connectable=0;fillColor=none;top=0;left=0;bottom=0;right=0;editable=1;overflow=hidden;whiteSpace=wrap;html=1;fontStyle=0" vertex="1" parent="t7EN4lz90MW7jezC_zGg-122">
          <mxGeometry width="30" height="30" as="geometry">
            <mxRectangle width="30" height="30" as="alternateBounds" />
          </mxGeometry>
        </mxCell>
        <mxCell id="t7EN4lz90MW7jezC_zGg-124" value="price" style="shape=partialRectangle;connectable=0;fillColor=none;top=0;left=0;bottom=0;right=0;align=left;spacingLeft=6;overflow=hidden;whiteSpace=wrap;html=1;fontStyle=0" vertex="1" parent="t7EN4lz90MW7jezC_zGg-122">
          <mxGeometry x="30" width="150" height="30" as="geometry">
            <mxRectangle width="150" height="30" as="alternateBounds" />
          </mxGeometry>
        </mxCell>
        <mxCell id="t7EN4lz90MW7jezC_zGg-125" style="shape=tableRow;horizontal=0;startSize=0;swimlaneHead=0;swimlaneBody=0;fillColor=none;collapsible=0;dropTarget=0;points=[[0,0.5],[1,0.5]];portConstraint=eastwest;top=0;left=0;right=0;bottom=0;fontStyle=0" vertex="1" parent="t7EN4lz90MW7jezC_zGg-115">
          <mxGeometry y="120" width="180" height="33" as="geometry" />
        </mxCell>
        <mxCell id="t7EN4lz90MW7jezC_zGg-126" value="" style="shape=partialRectangle;connectable=0;fillColor=none;top=0;left=0;bottom=0;right=0;editable=1;overflow=hidden;whiteSpace=wrap;html=1;fontStyle=0" vertex="1" parent="t7EN4lz90MW7jezC_zGg-125">
          <mxGeometry width="30" height="33" as="geometry">
            <mxRectangle width="30" height="33" as="alternateBounds" />
          </mxGeometry>
        </mxCell>
        <mxCell id="t7EN4lz90MW7jezC_zGg-127" value="count" style="shape=partialRectangle;connectable=0;fillColor=none;top=0;left=0;bottom=0;right=0;align=left;spacingLeft=6;overflow=hidden;whiteSpace=wrap;html=1;fontStyle=0" vertex="1" parent="t7EN4lz90MW7jezC_zGg-125">
          <mxGeometry x="30" width="150" height="33" as="geometry">
            <mxRectangle width="150" height="33" as="alternateBounds" />
          </mxGeometry>
        </mxCell>
        <mxCell id="t7EN4lz90MW7jezC_zGg-192" style="shape=tableRow;horizontal=0;startSize=0;swimlaneHead=0;swimlaneBody=0;fillColor=none;collapsible=0;dropTarget=0;points=[[0,0.5],[1,0.5]];portConstraint=eastwest;top=0;left=0;right=0;bottom=0;fontStyle=0" vertex="1" parent="t7EN4lz90MW7jezC_zGg-115">
          <mxGeometry y="153" width="180" height="33" as="geometry" />
        </mxCell>
        <mxCell id="t7EN4lz90MW7jezC_zGg-193" value="FK" style="shape=partialRectangle;connectable=0;fillColor=none;top=0;left=0;bottom=0;right=0;editable=1;overflow=hidden;whiteSpace=wrap;html=1;fontStyle=0" vertex="1" parent="t7EN4lz90MW7jezC_zGg-192">
          <mxGeometry width="30" height="33" as="geometry">
            <mxRectangle width="30" height="33" as="alternateBounds" />
          </mxGeometry>
        </mxCell>
        <mxCell id="t7EN4lz90MW7jezC_zGg-194" value="employee_id" style="shape=partialRectangle;connectable=0;fillColor=none;top=0;left=0;bottom=0;right=0;align=left;spacingLeft=6;overflow=hidden;whiteSpace=wrap;html=1;fontStyle=0" vertex="1" parent="t7EN4lz90MW7jezC_zGg-192">
          <mxGeometry x="30" width="150" height="33" as="geometry">
            <mxRectangle width="150" height="33" as="alternateBounds" />
          </mxGeometry>
        </mxCell>
        <mxCell id="t7EN4lz90MW7jezC_zGg-134" value="Users" style="shape=table;startSize=30;container=1;collapsible=1;childLayout=tableLayout;fixedRows=1;rowLines=0;fontStyle=0;align=center;resizeLast=1;html=1;" vertex="1" parent="1">
          <mxGeometry x="1008.5882352941176" y="275.3333093979779" width="180" height="211" as="geometry" />
        </mxCell>
        <mxCell id="t7EN4lz90MW7jezC_zGg-135" value="" style="shape=tableRow;horizontal=0;startSize=0;swimlaneHead=0;swimlaneBody=0;fillColor=none;collapsible=0;dropTarget=0;points=[[0,0.5],[1,0.5]];portConstraint=eastwest;top=0;left=0;right=0;bottom=1;fontStyle=0" vertex="1" parent="t7EN4lz90MW7jezC_zGg-134">
          <mxGeometry y="30" width="180" height="30" as="geometry" />
        </mxCell>
        <mxCell id="t7EN4lz90MW7jezC_zGg-136" value="PK" style="shape=partialRectangle;connectable=0;fillColor=none;top=0;left=0;bottom=0;right=0;fontStyle=0;overflow=hidden;whiteSpace=wrap;html=1;" vertex="1" parent="t7EN4lz90MW7jezC_zGg-135">
          <mxGeometry width="30" height="30" as="geometry">
            <mxRectangle width="30" height="30" as="alternateBounds" />
          </mxGeometry>
        </mxCell>
        <mxCell id="t7EN4lz90MW7jezC_zGg-137" value="id" style="shape=partialRectangle;connectable=0;fillColor=none;top=0;left=0;bottom=0;right=0;align=left;spacingLeft=6;fontStyle=4;overflow=hidden;whiteSpace=wrap;html=1;" vertex="1" parent="t7EN4lz90MW7jezC_zGg-135">
          <mxGeometry x="30" width="150" height="30" as="geometry">
            <mxRectangle width="150" height="30" as="alternateBounds" />
          </mxGeometry>
        </mxCell>
        <mxCell id="t7EN4lz90MW7jezC_zGg-138" value="" style="shape=tableRow;horizontal=0;startSize=0;swimlaneHead=0;swimlaneBody=0;fillColor=none;collapsible=0;dropTarget=0;points=[[0,0.5],[1,0.5]];portConstraint=eastwest;top=0;left=0;right=0;bottom=0;fontStyle=0" vertex="1" parent="t7EN4lz90MW7jezC_zGg-134">
          <mxGeometry y="60" width="180" height="30" as="geometry" />
        </mxCell>
        <mxCell id="t7EN4lz90MW7jezC_zGg-139" value="" style="shape=partialRectangle;connectable=0;fillColor=none;top=0;left=0;bottom=0;right=0;editable=1;overflow=hidden;whiteSpace=wrap;html=1;fontStyle=0" vertex="1" parent="t7EN4lz90MW7jezC_zGg-138">
          <mxGeometry width="30" height="30" as="geometry">
            <mxRectangle width="30" height="30" as="alternateBounds" />
          </mxGeometry>
        </mxCell>
        <mxCell id="t7EN4lz90MW7jezC_zGg-140" value="name" style="shape=partialRectangle;connectable=0;fillColor=none;top=0;left=0;bottom=0;right=0;align=left;spacingLeft=6;overflow=hidden;whiteSpace=wrap;html=1;fontStyle=0" vertex="1" parent="t7EN4lz90MW7jezC_zGg-138">
          <mxGeometry x="30" width="150" height="30" as="geometry">
            <mxRectangle width="150" height="30" as="alternateBounds" />
          </mxGeometry>
        </mxCell>
        <mxCell id="t7EN4lz90MW7jezC_zGg-141" value="" style="shape=tableRow;horizontal=0;startSize=0;swimlaneHead=0;swimlaneBody=0;fillColor=none;collapsible=0;dropTarget=0;points=[[0,0.5],[1,0.5]];portConstraint=eastwest;top=0;left=0;right=0;bottom=0;fontStyle=0" vertex="1" parent="t7EN4lz90MW7jezC_zGg-134">
          <mxGeometry y="90" width="180" height="30" as="geometry" />
        </mxCell>
        <mxCell id="t7EN4lz90MW7jezC_zGg-142" value="" style="shape=partialRectangle;connectable=0;fillColor=none;top=0;left=0;bottom=0;right=0;editable=1;overflow=hidden;whiteSpace=wrap;html=1;fontStyle=0" vertex="1" parent="t7EN4lz90MW7jezC_zGg-141">
          <mxGeometry width="30" height="30" as="geometry">
            <mxRectangle width="30" height="30" as="alternateBounds" />
          </mxGeometry>
        </mxCell>
        <mxCell id="t7EN4lz90MW7jezC_zGg-143" value="last_name" style="shape=partialRectangle;connectable=0;fillColor=none;top=0;left=0;bottom=0;right=0;align=left;spacingLeft=6;overflow=hidden;whiteSpace=wrap;html=1;fontStyle=0" vertex="1" parent="t7EN4lz90MW7jezC_zGg-141">
          <mxGeometry x="30" width="150" height="30" as="geometry">
            <mxRectangle width="150" height="30" as="alternateBounds" />
          </mxGeometry>
        </mxCell>
        <mxCell id="t7EN4lz90MW7jezC_zGg-144" style="shape=tableRow;horizontal=0;startSize=0;swimlaneHead=0;swimlaneBody=0;fillColor=none;collapsible=0;dropTarget=0;points=[[0,0.5],[1,0.5]];portConstraint=eastwest;top=0;left=0;right=0;bottom=0;fontStyle=0" vertex="1" parent="t7EN4lz90MW7jezC_zGg-134">
          <mxGeometry y="120" width="180" height="30" as="geometry" />
        </mxCell>
        <mxCell id="t7EN4lz90MW7jezC_zGg-145" style="shape=partialRectangle;connectable=0;fillColor=none;top=0;left=0;bottom=0;right=0;editable=1;overflow=hidden;whiteSpace=wrap;html=1;fontStyle=0" vertex="1" parent="t7EN4lz90MW7jezC_zGg-144">
          <mxGeometry width="30" height="30" as="geometry">
            <mxRectangle width="30" height="30" as="alternateBounds" />
          </mxGeometry>
        </mxCell>
        <mxCell id="t7EN4lz90MW7jezC_zGg-146" value="email" style="shape=partialRectangle;connectable=0;fillColor=none;top=0;left=0;bottom=0;right=0;align=left;spacingLeft=6;overflow=hidden;whiteSpace=wrap;html=1;fontStyle=0" vertex="1" parent="t7EN4lz90MW7jezC_zGg-144">
          <mxGeometry x="30" width="150" height="30" as="geometry">
            <mxRectangle width="150" height="30" as="alternateBounds" />
          </mxGeometry>
        </mxCell>
        <mxCell id="t7EN4lz90MW7jezC_zGg-147" style="shape=tableRow;horizontal=0;startSize=0;swimlaneHead=0;swimlaneBody=0;fillColor=none;collapsible=0;dropTarget=0;points=[[0,0.5],[1,0.5]];portConstraint=eastwest;top=0;left=0;right=0;bottom=0;fontStyle=0" vertex="1" parent="t7EN4lz90MW7jezC_zGg-134">
          <mxGeometry y="150" width="180" height="31" as="geometry" />
        </mxCell>
        <mxCell id="t7EN4lz90MW7jezC_zGg-148" style="shape=partialRectangle;connectable=0;fillColor=none;top=0;left=0;bottom=0;right=0;editable=1;overflow=hidden;whiteSpace=wrap;html=1;fontStyle=0" vertex="1" parent="t7EN4lz90MW7jezC_zGg-147">
          <mxGeometry width="30" height="31" as="geometry">
            <mxRectangle width="30" height="31" as="alternateBounds" />
          </mxGeometry>
        </mxCell>
        <mxCell id="t7EN4lz90MW7jezC_zGg-149" value="hash" style="shape=partialRectangle;connectable=0;fillColor=none;top=0;left=0;bottom=0;right=0;align=left;spacingLeft=6;overflow=hidden;whiteSpace=wrap;html=1;fontStyle=0" vertex="1" parent="t7EN4lz90MW7jezC_zGg-147">
          <mxGeometry x="30" width="150" height="31" as="geometry">
            <mxRectangle width="150" height="31" as="alternateBounds" />
          </mxGeometry>
        </mxCell>
        <mxCell id="t7EN4lz90MW7jezC_zGg-150" style="shape=tableRow;horizontal=0;startSize=0;swimlaneHead=0;swimlaneBody=0;fillColor=none;collapsible=0;dropTarget=0;points=[[0,0.5],[1,0.5]];portConstraint=eastwest;top=0;left=0;right=0;bottom=0;fontStyle=0" vertex="1" parent="t7EN4lz90MW7jezC_zGg-134">
          <mxGeometry y="181" width="180" height="30" as="geometry" />
        </mxCell>
        <mxCell id="t7EN4lz90MW7jezC_zGg-151" style="shape=partialRectangle;connectable=0;fillColor=none;top=0;left=0;bottom=0;right=0;editable=1;overflow=hidden;whiteSpace=wrap;html=1;fontStyle=0" vertex="1" parent="t7EN4lz90MW7jezC_zGg-150">
          <mxGeometry width="30" height="30" as="geometry">
            <mxRectangle width="30" height="30" as="alternateBounds" />
          </mxGeometry>
        </mxCell>
        <mxCell id="t7EN4lz90MW7jezC_zGg-152" value="role" style="shape=partialRectangle;connectable=0;fillColor=none;top=0;left=0;bottom=0;right=0;align=left;spacingLeft=6;overflow=hidden;whiteSpace=wrap;html=1;fontStyle=0" vertex="1" parent="t7EN4lz90MW7jezC_zGg-150">
          <mxGeometry x="30" width="150" height="30" as="geometry">
            <mxRectangle width="150" height="30" as="alternateBounds" />
          </mxGeometry>
        </mxCell>
        <mxCell id="t7EN4lz90MW7jezC_zGg-156" value="employee" style="shape=table;startSize=30;container=1;collapsible=1;childLayout=tableLayout;fixedRows=1;rowLines=0;fontStyle=0;align=center;resizeLast=1;html=1;" vertex="1" parent="1">
          <mxGeometry x="1522.9982352941176" y="619.0033093979779" width="180" height="150" as="geometry" />
        </mxCell>
        <mxCell id="t7EN4lz90MW7jezC_zGg-157" value="" style="shape=tableRow;horizontal=0;startSize=0;swimlaneHead=0;swimlaneBody=0;fillColor=none;collapsible=0;dropTarget=0;points=[[0,0.5],[1,0.5]];portConstraint=eastwest;top=0;left=0;right=0;bottom=1;fontStyle=0" vertex="1" parent="t7EN4lz90MW7jezC_zGg-156">
          <mxGeometry y="30" width="180" height="30" as="geometry" />
        </mxCell>
        <mxCell id="t7EN4lz90MW7jezC_zGg-158" value="PK" style="shape=partialRectangle;connectable=0;fillColor=none;top=0;left=0;bottom=0;right=0;fontStyle=0;overflow=hidden;whiteSpace=wrap;html=1;" vertex="1" parent="t7EN4lz90MW7jezC_zGg-157">
          <mxGeometry width="30" height="30" as="geometry">
            <mxRectangle width="30" height="30" as="alternateBounds" />
          </mxGeometry>
        </mxCell>
        <mxCell id="t7EN4lz90MW7jezC_zGg-159" value="id" style="shape=partialRectangle;connectable=0;fillColor=none;top=0;left=0;bottom=0;right=0;align=left;spacingLeft=6;fontStyle=4;overflow=hidden;whiteSpace=wrap;html=1;" vertex="1" parent="t7EN4lz90MW7jezC_zGg-157">
          <mxGeometry x="30" width="150" height="30" as="geometry">
            <mxRectangle width="150" height="30" as="alternateBounds" />
          </mxGeometry>
        </mxCell>
        <mxCell id="t7EN4lz90MW7jezC_zGg-160" value="" style="shape=tableRow;horizontal=0;startSize=0;swimlaneHead=0;swimlaneBody=0;fillColor=none;collapsible=0;dropTarget=0;points=[[0,0.5],[1,0.5]];portConstraint=eastwest;top=0;left=0;right=0;bottom=0;fontStyle=0" vertex="1" parent="t7EN4lz90MW7jezC_zGg-156">
          <mxGeometry y="60" width="180" height="30" as="geometry" />
        </mxCell>
        <mxCell id="t7EN4lz90MW7jezC_zGg-161" value="" style="shape=partialRectangle;connectable=0;fillColor=none;top=0;left=0;bottom=0;right=0;editable=1;overflow=hidden;whiteSpace=wrap;html=1;fontStyle=0" vertex="1" parent="t7EN4lz90MW7jezC_zGg-160">
          <mxGeometry width="30" height="30" as="geometry">
            <mxRectangle width="30" height="30" as="alternateBounds" />
          </mxGeometry>
        </mxCell>
        <mxCell id="t7EN4lz90MW7jezC_zGg-162" value="name" style="shape=partialRectangle;connectable=0;fillColor=none;top=0;left=0;bottom=0;right=0;align=left;spacingLeft=6;overflow=hidden;whiteSpace=wrap;html=1;fontStyle=0" vertex="1" parent="t7EN4lz90MW7jezC_zGg-160">
          <mxGeometry x="30" width="150" height="30" as="geometry">
            <mxRectangle width="150" height="30" as="alternateBounds" />
          </mxGeometry>
        </mxCell>
        <mxCell id="t7EN4lz90MW7jezC_zGg-163" value="" style="shape=tableRow;horizontal=0;startSize=0;swimlaneHead=0;swimlaneBody=0;fillColor=none;collapsible=0;dropTarget=0;points=[[0,0.5],[1,0.5]];portConstraint=eastwest;top=0;left=0;right=0;bottom=0;fontStyle=0" vertex="1" parent="t7EN4lz90MW7jezC_zGg-156">
          <mxGeometry y="90" width="180" height="30" as="geometry" />
        </mxCell>
        <mxCell id="t7EN4lz90MW7jezC_zGg-164" value="" style="shape=partialRectangle;connectable=0;fillColor=none;top=0;left=0;bottom=0;right=0;editable=1;overflow=hidden;whiteSpace=wrap;html=1;fontStyle=0" vertex="1" parent="t7EN4lz90MW7jezC_zGg-163">
          <mxGeometry width="30" height="30" as="geometry">
            <mxRectangle width="30" height="30" as="alternateBounds" />
          </mxGeometry>
        </mxCell>
        <mxCell id="t7EN4lz90MW7jezC_zGg-165" value="last_name" style="shape=partialRectangle;connectable=0;fillColor=none;top=0;left=0;bottom=0;right=0;align=left;spacingLeft=6;overflow=hidden;whiteSpace=wrap;html=1;fontStyle=0" vertex="1" parent="t7EN4lz90MW7jezC_zGg-163">
          <mxGeometry x="30" width="150" height="30" as="geometry">
            <mxRectangle width="150" height="30" as="alternateBounds" />
          </mxGeometry>
        </mxCell>
        <mxCell id="t7EN4lz90MW7jezC_zGg-166" style="shape=tableRow;horizontal=0;startSize=0;swimlaneHead=0;swimlaneBody=0;fillColor=none;collapsible=0;dropTarget=0;points=[[0,0.5],[1,0.5]];portConstraint=eastwest;top=0;left=0;right=0;bottom=0;fontStyle=0" vertex="1" parent="t7EN4lz90MW7jezC_zGg-156">
          <mxGeometry y="120" width="180" height="30" as="geometry" />
        </mxCell>
        <mxCell id="t7EN4lz90MW7jezC_zGg-167" style="shape=partialRectangle;connectable=0;fillColor=none;top=0;left=0;bottom=0;right=0;editable=1;overflow=hidden;whiteSpace=wrap;html=1;fontStyle=0" vertex="1" parent="t7EN4lz90MW7jezC_zGg-166">
          <mxGeometry width="30" height="30" as="geometry">
            <mxRectangle width="30" height="30" as="alternateBounds" />
          </mxGeometry>
        </mxCell>
        <mxCell id="t7EN4lz90MW7jezC_zGg-168" value="job" style="shape=partialRectangle;connectable=0;fillColor=none;top=0;left=0;bottom=0;right=0;align=left;spacingLeft=6;overflow=hidden;whiteSpace=wrap;html=1;fontStyle=0" vertex="1" parent="t7EN4lz90MW7jezC_zGg-166">
          <mxGeometry x="30" width="150" height="30" as="geometry">
            <mxRectangle width="150" height="30" as="alternateBounds" />
          </mxGeometry>
        </mxCell>
        <mxCell id="t7EN4lz90MW7jezC_zGg-176" style="edgeStyle=orthogonalEdgeStyle;rounded=0;orthogonalLoop=1;jettySize=auto;html=1;endArrow=ERone;endFill=0;startArrow=ERzeroToMany;startFill=0;entryX=0;entryY=0.5;entryDx=0;entryDy=0;" edge="1" parent="1" source="t7EN4lz90MW7jezC_zGg-87" target="t7EN4lz90MW7jezC_zGg-56">
          <mxGeometry relative="1" as="geometry">
            <Array as="points">
              <mxPoint x="1476" y="724" />
              <mxPoint x="1476" y="563" />
              <mxPoint x="1247" y="563" />
              <mxPoint x="1247" y="320" />
            </Array>
          </mxGeometry>
        </mxCell>
        <mxCell id="t7EN4lz90MW7jezC_zGg-179" style="edgeStyle=orthogonalEdgeStyle;rounded=0;orthogonalLoop=1;jettySize=auto;html=1;entryX=-0.004;entryY=0.735;entryDx=0;entryDy=0;entryPerimeter=0;endArrow=ERone;endFill=0;startArrow=ERzeroToMany;startFill=0;exitX=0;exitY=0.5;exitDx=0;exitDy=0;" edge="1" parent="1" source="t7EN4lz90MW7jezC_zGg-119" target="t7EN4lz90MW7jezC_zGg-135">
          <mxGeometry relative="1" as="geometry">
            <Array as="points">
              <mxPoint x="989" y="694" />
              <mxPoint x="989" y="327" />
            </Array>
          </mxGeometry>
        </mxCell>
        <mxCell id="t7EN4lz90MW7jezC_zGg-180" style="edgeStyle=orthogonalEdgeStyle;rounded=0;orthogonalLoop=1;jettySize=auto;html=1;entryX=0;entryY=0.5;entryDx=0;entryDy=0;startArrow=ERzeroToOne;startFill=0;endArrow=ERzeroToOne;endFill=0;" edge="1" parent="1" source="t7EN4lz90MW7jezC_zGg-128" target="t7EN4lz90MW7jezC_zGg-100">
          <mxGeometry relative="1" as="geometry">
            <mxPoint x="1489.4771919998468" y="295.72218980976186" as="targetPoint" />
            <Array as="points">
              <mxPoint x="1219.5882352941176" y="709.3333093979779" />
              <mxPoint x="1219.5882352941176" y="550.3333093979779" />
              <mxPoint x="1489.5882352941176" y="550.3333093979779" />
              <mxPoint x="1489.5882352941176" y="320.3333093979779" />
            </Array>
          </mxGeometry>
        </mxCell>
        <mxCell id="t7EN4lz90MW7jezC_zGg-181" style="edgeStyle=orthogonalEdgeStyle;rounded=0;orthogonalLoop=1;jettySize=auto;html=1;entryX=0;entryY=0.5;entryDx=0;entryDy=0;startArrow=ERone;startFill=0;endArrow=ERone;endFill=0;" edge="1" parent="1" source="t7EN4lz90MW7jezC_zGg-103" target="t7EN4lz90MW7jezC_zGg-116">
          <mxGeometry relative="1" as="geometry">
            <Array as="points">
              <mxPoint x="1491" y="350" />
              <mxPoint x="1491" y="594" />
              <mxPoint x="971" y="594" />
              <mxPoint x="971" y="664" />
            </Array>
          </mxGeometry>
        </mxCell>
        <mxCell id="t7EN4lz90MW7jezC_zGg-198" style="edgeStyle=orthogonalEdgeStyle;rounded=0;orthogonalLoop=1;jettySize=auto;html=1;endArrow=ERone;endFill=0;startArrow=ERzeroToMany;startFill=0;exitX=0;exitY=0.5;exitDx=0;exitDy=0;" edge="1" parent="1" source="t7EN4lz90MW7jezC_zGg-84" target="t7EN4lz90MW7jezC_zGg-116">
          <mxGeometry relative="1" as="geometry">
            <mxPoint x="1277" y="734" as="sourcePoint" />
            <mxPoint x="1199" y="330" as="targetPoint" />
            <Array as="points">
              <mxPoint x="1214" y="694" />
              <mxPoint x="1214" y="664" />
            </Array>
          </mxGeometry>
        </mxCell>
        <mxCell id="t7EN4lz90MW7jezC_zGg-199" style="edgeStyle=orthogonalEdgeStyle;rounded=0;orthogonalLoop=1;jettySize=auto;html=1;endArrow=ERone;endFill=0;startArrow=ERzeroToMany;startFill=0;exitX=0;exitY=0.5;exitDx=0;exitDy=0;" edge="1" parent="1" source="t7EN4lz90MW7jezC_zGg-157">
          <mxGeometry relative="1" as="geometry">
            <mxPoint x="1489" y="670" as="sourcePoint" />
            <mxPoint x="1190" y="791" as="targetPoint" />
            <Array as="points">
              <mxPoint x="1489" y="664" />
              <mxPoint x="1489" y="822" />
              <mxPoint x="1224" y="822" />
              <mxPoint x="1224" y="791" />
            </Array>
          </mxGeometry>
        </mxCell>
        <mxCell id="t7EN4lz90MW7jezC_zGg-200" value="" style="rounded=0;whiteSpace=wrap;html=1;" vertex="1" parent="1">
          <mxGeometry x="1093.996405029297" y="-435.00332061767574" width="794" height="551" as="geometry" />
        </mxCell>
        <mxCell id="t7EN4lz90MW7jezC_zGg-201" style="edgeStyle=orthogonalEdgeStyle;rounded=0;orthogonalLoop=1;jettySize=auto;html=1;endArrow=block;endFill=0;" edge="1" parent="1" source="t7EN4lz90MW7jezC_zGg-202" target="t7EN4lz90MW7jezC_zGg-205">
          <mxGeometry relative="1" as="geometry">
            <mxPoint x="1093.996405029297" y="-170.48477949354393" as="targetPoint" />
          </mxGeometry>
        </mxCell>
        <mxCell id="t7EN4lz90MW7jezC_zGg-202" value="Администратор" style="shape=umlActor;verticalLabelPosition=bottom;verticalAlign=top;html=1;outlineConnect=0;" vertex="1" parent="1">
          <mxGeometry x="1020.9964050292969" y="-60.00332061767577" width="30" height="60" as="geometry" />
        </mxCell>
        <mxCell id="t7EN4lz90MW7jezC_zGg-203" value="Управление пользователями" style="ellipse;whiteSpace=wrap;html=1;" vertex="1" parent="1">
          <mxGeometry x="1175.996405029297" y="-62.00332061767577" width="120" height="80" as="geometry" />
        </mxCell>
        <mxCell id="t7EN4lz90MW7jezC_zGg-204" value="Контроль продаж" style="ellipse;whiteSpace=wrap;html=1;" vertex="1" parent="1">
          <mxGeometry x="1175.996405029297" y="28.99667938232423" width="120" height="80" as="geometry" />
        </mxCell>
        <mxCell id="t7EN4lz90MW7jezC_zGg-205" value="Продавец" style="shape=umlActor;verticalLabelPosition=bottom;verticalAlign=top;html=1;outlineConnect=0;" vertex="1" parent="1">
          <mxGeometry x="1020.9964050292969" y="-228.00332061767577" width="30" height="60" as="geometry" />
        </mxCell>
        <mxCell id="t7EN4lz90MW7jezC_zGg-206" value="Просмотр заказов" style="ellipse;whiteSpace=wrap;html=1;" vertex="1" parent="1">
          <mxGeometry x="1145.996405029297" y="-393.00332061767574" width="120" height="80" as="geometry" />
        </mxCell>
        <mxCell id="t7EN4lz90MW7jezC_zGg-207" value="Изменение статуса заказов" style="ellipse;whiteSpace=wrap;html=1;" vertex="1" parent="1">
          <mxGeometry x="1415.996405029297" y="-406.00332061767574" width="120" height="80" as="geometry" />
        </mxCell>
        <mxCell id="t7EN4lz90MW7jezC_zGg-208" value="Добавление новых книг" style="ellipse;whiteSpace=wrap;html=1;" vertex="1" parent="1">
          <mxGeometry x="1276.996405029297" y="-228.00332061767574" width="120" height="80" as="geometry" />
        </mxCell>
        <mxCell id="t7EN4lz90MW7jezC_zGg-209" value="Анализ продаж" style="ellipse;whiteSpace=wrap;html=1;" vertex="1" parent="1">
          <mxGeometry x="1268.996405029297" y="-140.00332061767577" width="120" height="80" as="geometry" />
        </mxCell>
        <mxCell id="t7EN4lz90MW7jezC_zGg-210" value="" style="endArrow=none;html=1;rounded=0;exitX=0.5;exitY=0.5;exitDx=0;exitDy=0;exitPerimeter=0;entryX=0;entryY=0.5;entryDx=0;entryDy=0;" edge="1" parent="1" source="t7EN4lz90MW7jezC_zGg-202" target="t7EN4lz90MW7jezC_zGg-204">
          <mxGeometry width="50" height="50" relative="1" as="geometry">
            <mxPoint x="1157.996405029297" y="7.996679382324231" as="sourcePoint" />
            <mxPoint x="1207.996405029297" y="-42.00332061767577" as="targetPoint" />
          </mxGeometry>
        </mxCell>
        <mxCell id="t7EN4lz90MW7jezC_zGg-211" value="" style="endArrow=none;html=1;rounded=0;exitX=0.5;exitY=0.5;exitDx=0;exitDy=0;exitPerimeter=0;entryX=0;entryY=0.5;entryDx=0;entryDy=0;" edge="1" parent="1" source="t7EN4lz90MW7jezC_zGg-202" target="t7EN4lz90MW7jezC_zGg-203">
          <mxGeometry width="50" height="50" relative="1" as="geometry">
            <mxPoint x="1103.996405029297" y="-20.00332061767577" as="sourcePoint" />
            <mxPoint x="1238.996405029297" y="51.99667938232423" as="targetPoint" />
          </mxGeometry>
        </mxCell>
        <mxCell id="t7EN4lz90MW7jezC_zGg-212" value="" style="endArrow=none;html=1;rounded=0;exitX=0.5;exitY=0.5;exitDx=0;exitDy=0;exitPerimeter=0;entryX=0.021;entryY=0.634;entryDx=0;entryDy=0;entryPerimeter=0;" edge="1" parent="1" source="t7EN4lz90MW7jezC_zGg-205" target="t7EN4lz90MW7jezC_zGg-208">
          <mxGeometry width="50" height="50" relative="1" as="geometry">
            <mxPoint x="1103.996405029297" y="-20.00332061767577" as="sourcePoint" />
            <mxPoint x="1242.996405029297" y="-40.00332061767577" as="targetPoint" />
          </mxGeometry>
        </mxCell>
        <mxCell id="t7EN4lz90MW7jezC_zGg-213" value="" style="endArrow=none;html=1;rounded=0;exitX=0.5;exitY=0.5;exitDx=0;exitDy=0;exitPerimeter=0;entryX=0;entryY=0.5;entryDx=0;entryDy=0;" edge="1" parent="1" source="t7EN4lz90MW7jezC_zGg-205" target="t7EN4lz90MW7jezC_zGg-209">
          <mxGeometry width="50" height="50" relative="1" as="geometry">
            <mxPoint x="1103.996405029297" y="-187.00332061767577" as="sourcePoint" />
            <mxPoint x="1245.996405029297" y="-238.00332061767577" as="targetPoint" />
          </mxGeometry>
        </mxCell>
        <mxCell id="t7EN4lz90MW7jezC_zGg-214" value="" style="endArrow=none;html=1;rounded=0;exitX=0.5;exitY=0.5;exitDx=0;exitDy=0;exitPerimeter=0;entryX=0;entryY=1;entryDx=0;entryDy=0;" edge="1" parent="1" source="t7EN4lz90MW7jezC_zGg-205" target="t7EN4lz90MW7jezC_zGg-206">
          <mxGeometry width="50" height="50" relative="1" as="geometry">
            <mxPoint x="1103.996405029297" y="-187.00332061767577" as="sourcePoint" />
            <mxPoint x="1242.996405029297" y="-144.00332061767577" as="targetPoint" />
          </mxGeometry>
        </mxCell>
        <mxCell id="t7EN4lz90MW7jezC_zGg-215" value="" style="endArrow=none;dashed=1;html=1;rounded=0;exitX=1;exitY=0.5;exitDx=0;exitDy=0;entryX=0.025;entryY=0.64;entryDx=0;entryDy=0;entryPerimeter=0;startArrow=open;startFill=0;" edge="1" parent="1" source="t7EN4lz90MW7jezC_zGg-206" target="t7EN4lz90MW7jezC_zGg-207">
          <mxGeometry width="50" height="50" relative="1" as="geometry">
            <mxPoint x="1157.996405029297" y="-58.00332061767577" as="sourcePoint" />
            <mxPoint x="1207.996405029297" y="-108.00332061767577" as="targetPoint" />
          </mxGeometry>
        </mxCell>
        <mxCell id="t7EN4lz90MW7jezC_zGg-216" value="&amp;lt;&amp;lt;расширить&amp;gt;&amp;gt;" style="edgeLabel;html=1;align=center;verticalAlign=middle;resizable=0;points=[];" vertex="1" connectable="0" parent="t7EN4lz90MW7jezC_zGg-215">
          <mxGeometry x="-0.0986" y="4" relative="1" as="geometry">
            <mxPoint as="offset" />
          </mxGeometry>
        </mxCell>
        <mxCell id="t7EN4lz90MW7jezC_zGg-217" value="Клиент" style="shape=umlActor;verticalLabelPosition=bottom;verticalAlign=top;html=1;outlineConnect=0;" vertex="1" parent="1">
          <mxGeometry x="1961.996405029297" y="-144.00332061767577" width="30" height="60" as="geometry" />
        </mxCell>
        <mxCell id="t7EN4lz90MW7jezC_zGg-219" value="Поиск товаров" style="ellipse;whiteSpace=wrap;html=1;" vertex="1" parent="1">
          <mxGeometry x="1691.996405029297" y="-192.00332061767577" width="120" height="80" as="geometry" />
        </mxCell>
        <mxCell id="t7EN4lz90MW7jezC_zGg-220" value="Оформление заказа" style="ellipse;whiteSpace=wrap;html=1;" vertex="1" parent="1">
          <mxGeometry x="1691.996405029297" y="-68.00332061767577" width="120" height="80" as="geometry" />
        </mxCell>
        <mxCell id="t7EN4lz90MW7jezC_zGg-221" value="Отслеживание заказа" style="ellipse;whiteSpace=wrap;html=1;" vertex="1" parent="1">
          <mxGeometry x="1442.996405029297" y="-2.0033206176757687" width="120" height="80" as="geometry" />
        </mxCell>
        <mxCell id="t7EN4lz90MW7jezC_zGg-222" value="" style="endArrow=none;dashed=1;html=1;rounded=0;exitX=0;exitY=0.5;exitDx=0;exitDy=0;entryX=1;entryY=0.5;entryDx=0;entryDy=0;startArrow=open;startFill=0;" edge="1" parent="1" source="t7EN4lz90MW7jezC_zGg-220" target="t7EN4lz90MW7jezC_zGg-221">
          <mxGeometry width="50" height="50" relative="1" as="geometry">
            <mxPoint x="1275.996405029297" y="-343.00332061767574" as="sourcePoint" />
            <mxPoint x="1390.996405029297" y="-376.00332061767574" as="targetPoint" />
          </mxGeometry>
        </mxCell>
        <mxCell id="t7EN4lz90MW7jezC_zGg-223" value="&amp;lt;&amp;lt;расширить&amp;gt;&amp;gt;" style="edgeLabel;html=1;align=center;verticalAlign=middle;resizable=0;points=[];" vertex="1" connectable="0" parent="t7EN4lz90MW7jezC_zGg-222">
          <mxGeometry x="-0.0986" y="4" relative="1" as="geometry">
            <mxPoint as="offset" />
          </mxGeometry>
        </mxCell>
        <mxCell id="t7EN4lz90MW7jezC_zGg-224" value="Оставление отзывов" style="ellipse;whiteSpace=wrap;html=1;" vertex="1" parent="1">
          <mxGeometry x="1691.996405029297" y="-292.00332061767574" width="120" height="80" as="geometry" />
        </mxCell>
        <mxCell id="t7EN4lz90MW7jezC_zGg-225" value="Оплата заказа онлайн" style="ellipse;whiteSpace=wrap;html=1;" vertex="1" parent="1">
          <mxGeometry x="1442.996405029297" y="-112.00332061767577" width="120" height="80" as="geometry" />
        </mxCell>
        <mxCell id="t7EN4lz90MW7jezC_zGg-226" value="" style="endArrow=none;dashed=1;html=1;rounded=0;exitX=0;exitY=0.5;exitDx=0;exitDy=0;entryX=1;entryY=0.5;entryDx=0;entryDy=0;startArrow=open;startFill=0;" edge="1" parent="1" source="t7EN4lz90MW7jezC_zGg-220" target="t7EN4lz90MW7jezC_zGg-225">
          <mxGeometry width="50" height="50" relative="1" as="geometry">
            <mxPoint x="1655.996405029297" y="49.99667938232423" as="sourcePoint" />
            <mxPoint x="1517.996405029297" y="49.99667938232423" as="targetPoint" />
          </mxGeometry>
        </mxCell>
        <mxCell id="t7EN4lz90MW7jezC_zGg-227" value="&amp;lt;&amp;lt;расширить&amp;gt;&amp;gt;" style="edgeLabel;html=1;align=center;verticalAlign=middle;resizable=0;points=[];" vertex="1" connectable="0" parent="t7EN4lz90MW7jezC_zGg-226">
          <mxGeometry x="-0.0986" y="4" relative="1" as="geometry">
            <mxPoint as="offset" />
          </mxGeometry>
        </mxCell>
        <mxCell id="t7EN4lz90MW7jezC_zGg-228" value="" style="endArrow=none;html=1;rounded=0;entryX=1;entryY=0.5;entryDx=0;entryDy=0;" edge="1" parent="1" source="t7EN4lz90MW7jezC_zGg-217" target="t7EN4lz90MW7jezC_zGg-219">
          <mxGeometry width="50" height="50" relative="1" as="geometry">
            <mxPoint x="1103.996405029297" y="-187.00332061767577" as="sourcePoint" />
            <mxPoint x="1242.996405029297" y="-144.00332061767577" as="targetPoint" />
          </mxGeometry>
        </mxCell>
        <mxCell id="t7EN4lz90MW7jezC_zGg-229" value="" style="endArrow=none;html=1;rounded=0;entryX=1;entryY=0.5;entryDx=0;entryDy=0;" edge="1" parent="1" source="t7EN4lz90MW7jezC_zGg-217" target="t7EN4lz90MW7jezC_zGg-220">
          <mxGeometry width="50" height="50" relative="1" as="geometry">
            <mxPoint x="1855.996405029297" y="-82.00332061767577" as="sourcePoint" />
            <mxPoint x="1775.996405029297" y="-64.00332061767577" as="targetPoint" />
          </mxGeometry>
        </mxCell>
        <mxCell id="t7EN4lz90MW7jezC_zGg-230" value="" style="endArrow=none;html=1;rounded=0;entryX=1;entryY=0.5;entryDx=0;entryDy=0;" edge="1" parent="1" source="t7EN4lz90MW7jezC_zGg-217" target="t7EN4lz90MW7jezC_zGg-224">
          <mxGeometry width="50" height="50" relative="1" as="geometry">
            <mxPoint x="1855.996405029297" y="-82.00332061767577" as="sourcePoint" />
            <mxPoint x="1775.996405029297" y="-64.00332061767577" as="targetPoint" />
          </mxGeometry>
        </mxCell>
        <mxCell id="t7EN4lz90MW7jezC_zGg-232" value="Удаление&lt;span style=&quot;color: rgba(0, 0, 0, 0); font-family: monospace; font-size: 0px; text-align: start; text-wrap-mode: nowrap;&quot;&gt;%3CmxGraphModel%3E%3Croot%3E%3CmxCell%20id%3D%220%22%2F%3E%3CmxCell%20id%3D%221%22%20parent%3D%220%22%2F%3E%3CmxCell%20id%3D%222%22%20value%3D%22%D0%94%D0%BE%D0%B1%D0%B0%D0%B2%D0%BB%D0%B5%D0%BD%D0%B8%D0%B5%20%D0%BD%D0%BE%D0%B2%D1%8B%D1%85%20%D0%BA%D0%BD%D0%B8%D0%B3%22%20style%3D%22ellipse%3BwhiteSpace%3Dwrap%3Bhtml%3D1%3B%22%20vertex%3D%221%22%20parent%3D%221%22%3E%3CmxGeometry%20x%3D%221203.996405029297%22%20y%3D%22-228.00332061767574%22%20width%3D%22120%22%20height%3D%2280%22%20as%3D%22geometry%22%2F%3E%3C%2FmxCell%3E%3C%2Froot%3E%3C%2FmxGraphModel%3E&lt;/span&gt;&amp;nbsp;книг" style="ellipse;whiteSpace=wrap;html=1;" vertex="1" parent="1">
          <mxGeometry x="1265.5864050292969" y="-335.00332061767574" width="120" height="80" as="geometry" />
        </mxCell>
        <mxCell id="t7EN4lz90MW7jezC_zGg-233" value="Изменение&lt;span style=&quot;color: rgba(0, 0, 0, 0); font-family: monospace; font-size: 0px; text-align: start; text-wrap-mode: nowrap;&quot;&gt;%3CmxGraphModel%3E%3Croot%3E%3CmxCell%20id%3D%220%22%2F%3E%3CmxCell%20id%3D%221%22%20parent%3D%220%22%2F%3E%3CmxCell%20id%3D%222%22%20value%3D%22%D0%94%D0%BE%D0%B1%D0%B0%D0%B2%D0%BB%D0%B5%D0%BD%D0%B8%D0%B5%20%D0%BD%D0%BE%D0%B2%D1%8B%D1%85%20%D0%BA%D0%BD%D0%B8%D0%B3%22%20style%3D%22ellipse%3BwhiteSpace%3Dwrap%3Bhtml%3D1%3B%22%20vertex%3D%221%22%20parent%3D%221%22%3E%3CmxGeometry%20x%3D%221203.996405029297%22%20y%3D%22-228.00332061767574%22%20width%3D%22120%22%20height%3D%2280%22%20as%3D%22geometry%22%2F%3E%3C%2FmxCell%3E%3C%2Froot%3E%3C%2FmxGraphModel%3&lt;/span&gt;&amp;nbsp;книг" style="ellipse;whiteSpace=wrap;html=1;" vertex="1" parent="1">
          <mxGeometry x="1385.5864050292969" y="-292.00332061767574" width="120" height="80" as="geometry" />
        </mxCell>
        <mxCell id="t7EN4lz90MW7jezC_zGg-234" value="" style="endArrow=none;html=1;rounded=0;exitX=0.5;exitY=0.5;exitDx=0;exitDy=0;exitPerimeter=0;entryX=0;entryY=0.5;entryDx=0;entryDy=0;" edge="1" parent="1" source="t7EN4lz90MW7jezC_zGg-205" target="t7EN4lz90MW7jezC_zGg-232">
          <mxGeometry width="50" height="50" relative="1" as="geometry">
            <mxPoint x="1046" y="-188" as="sourcePoint" />
            <mxPoint x="1217" y="-167" as="targetPoint" />
          </mxGeometry>
        </mxCell>
        <mxCell id="t7EN4lz90MW7jezC_zGg-235" value="" style="endArrow=none;html=1;rounded=0;exitX=0.5;exitY=0.5;exitDx=0;exitDy=0;exitPerimeter=0;entryX=0.028;entryY=0.596;entryDx=0;entryDy=0;entryPerimeter=0;" edge="1" parent="1" source="t7EN4lz90MW7jezC_zGg-205" target="t7EN4lz90MW7jezC_zGg-233">
          <mxGeometry width="50" height="50" relative="1" as="geometry">
            <mxPoint x="1046" y="-188" as="sourcePoint" />
            <mxPoint x="1276" y="-285" as="targetPoint" />
          </mxGeometry>
        </mxCell>
        <mxCell id="t7EN4lz90MW7jezC_zGg-286" value="authors" style="shape=table;startSize=30;container=1;collapsible=1;childLayout=tableLayout;fixedRows=1;rowLines=0;fontStyle=0;align=center;resizeLast=1;html=1;" vertex="1" parent="1">
          <mxGeometry x="1517.9982352941176" y="424.91330939797797" width="180" height="120.41668701171875" as="geometry" />
        </mxCell>
        <mxCell id="t7EN4lz90MW7jezC_zGg-287" value="" style="shape=tableRow;horizontal=0;startSize=0;swimlaneHead=0;swimlaneBody=0;fillColor=none;collapsible=0;dropTarget=0;points=[[0,0.5],[1,0.5]];portConstraint=eastwest;top=0;left=0;right=0;bottom=1;fontStyle=0" vertex="1" parent="t7EN4lz90MW7jezC_zGg-286">
          <mxGeometry y="30" width="180" height="30" as="geometry" />
        </mxCell>
        <mxCell id="t7EN4lz90MW7jezC_zGg-288" value="PK" style="shape=partialRectangle;connectable=0;fillColor=none;top=0;left=0;bottom=0;right=0;fontStyle=0;overflow=hidden;whiteSpace=wrap;html=1;" vertex="1" parent="t7EN4lz90MW7jezC_zGg-287">
          <mxGeometry width="30" height="30" as="geometry">
            <mxRectangle width="30" height="30" as="alternateBounds" />
          </mxGeometry>
        </mxCell>
        <mxCell id="t7EN4lz90MW7jezC_zGg-289" value="id" style="shape=partialRectangle;connectable=0;fillColor=none;top=0;left=0;bottom=0;right=0;align=left;spacingLeft=6;fontStyle=4;overflow=hidden;whiteSpace=wrap;html=1;" vertex="1" parent="t7EN4lz90MW7jezC_zGg-287">
          <mxGeometry x="30" width="150" height="30" as="geometry">
            <mxRectangle width="150" height="30" as="alternateBounds" />
          </mxGeometry>
        </mxCell>
        <mxCell id="t7EN4lz90MW7jezC_zGg-290" value="" style="shape=tableRow;horizontal=0;startSize=0;swimlaneHead=0;swimlaneBody=0;fillColor=none;collapsible=0;dropTarget=0;points=[[0,0.5],[1,0.5]];portConstraint=eastwest;top=0;left=0;right=0;bottom=0;fontStyle=0" vertex="1" parent="t7EN4lz90MW7jezC_zGg-286">
          <mxGeometry y="60" width="180" height="30" as="geometry" />
        </mxCell>
        <mxCell id="t7EN4lz90MW7jezC_zGg-291" value="" style="shape=partialRectangle;connectable=0;fillColor=none;top=0;left=0;bottom=0;right=0;editable=1;overflow=hidden;whiteSpace=wrap;html=1;fontStyle=0" vertex="1" parent="t7EN4lz90MW7jezC_zGg-290">
          <mxGeometry width="30" height="30" as="geometry">
            <mxRectangle width="30" height="30" as="alternateBounds" />
          </mxGeometry>
        </mxCell>
        <mxCell id="t7EN4lz90MW7jezC_zGg-292" value="name" style="shape=partialRectangle;connectable=0;fillColor=none;top=0;left=0;bottom=0;right=0;align=left;spacingLeft=6;overflow=hidden;whiteSpace=wrap;html=1;fontStyle=0" vertex="1" parent="t7EN4lz90MW7jezC_zGg-290">
          <mxGeometry x="30" width="150" height="30" as="geometry">
            <mxRectangle width="150" height="30" as="alternateBounds" />
          </mxGeometry>
        </mxCell>
        <mxCell id="t7EN4lz90MW7jezC_zGg-293" value="" style="shape=tableRow;horizontal=0;startSize=0;swimlaneHead=0;swimlaneBody=0;fillColor=none;collapsible=0;dropTarget=0;points=[[0,0.5],[1,0.5]];portConstraint=eastwest;top=0;left=0;right=0;bottom=0;fontStyle=0" vertex="1" parent="t7EN4lz90MW7jezC_zGg-286">
          <mxGeometry y="90" width="180" height="30" as="geometry" />
        </mxCell>
        <mxCell id="t7EN4lz90MW7jezC_zGg-294" value="" style="shape=partialRectangle;connectable=0;fillColor=none;top=0;left=0;bottom=0;right=0;editable=1;overflow=hidden;whiteSpace=wrap;html=1;fontStyle=0" vertex="1" parent="t7EN4lz90MW7jezC_zGg-293">
          <mxGeometry width="30" height="30" as="geometry">
            <mxRectangle width="30" height="30" as="alternateBounds" />
          </mxGeometry>
        </mxCell>
        <mxCell id="t7EN4lz90MW7jezC_zGg-295" value="biography" style="shape=partialRectangle;connectable=0;fillColor=none;top=0;left=0;bottom=0;right=0;align=left;spacingLeft=6;overflow=hidden;whiteSpace=wrap;html=1;fontStyle=0" vertex="1" parent="t7EN4lz90MW7jezC_zGg-293">
          <mxGeometry x="30" width="150" height="30" as="geometry">
            <mxRectangle width="150" height="30" as="alternateBounds" />
          </mxGeometry>
        </mxCell>
        <mxCell id="t7EN4lz90MW7jezC_zGg-296" style="edgeStyle=orthogonalEdgeStyle;rounded=0;orthogonalLoop=1;jettySize=auto;html=1;endArrow=ERone;endFill=0;startArrow=ERzeroToMany;startFill=0;entryX=0;entryY=0.5;entryDx=0;entryDy=0;exitX=1;exitY=0.5;exitDx=0;exitDy=0;" edge="1" parent="1" source="t7EN4lz90MW7jezC_zGg-283" target="t7EN4lz90MW7jezC_zGg-293">
          <mxGeometry relative="1" as="geometry">
            <mxPoint x="1456" y="734" as="sourcePoint" />
            <mxPoint x="1277" y="330" as="targetPoint" />
            <Array as="points">
              <mxPoint x="1465" y="530" />
              <mxPoint x="1499" y="530" />
            </Array>
          </mxGeometry>
        </mxCell>
        <mxCell id="t7EN4lz90MW7jezC_zGg-297" value="genres" style="shape=table;startSize=30;container=1;collapsible=1;childLayout=tableLayout;fixedRows=1;rowLines=0;fontStyle=0;align=center;resizeLast=1;html=1;" vertex="1" parent="1">
          <mxGeometry x="772.9982352941176" y="474.0033093979779" width="180" height="90.41668701171875" as="geometry" />
        </mxCell>
        <mxCell id="t7EN4lz90MW7jezC_zGg-298" value="" style="shape=tableRow;horizontal=0;startSize=0;swimlaneHead=0;swimlaneBody=0;fillColor=none;collapsible=0;dropTarget=0;points=[[0,0.5],[1,0.5]];portConstraint=eastwest;top=0;left=0;right=0;bottom=1;fontStyle=0" vertex="1" parent="t7EN4lz90MW7jezC_zGg-297">
          <mxGeometry y="30" width="180" height="30" as="geometry" />
        </mxCell>
        <mxCell id="t7EN4lz90MW7jezC_zGg-299" value="PK" style="shape=partialRectangle;connectable=0;fillColor=none;top=0;left=0;bottom=0;right=0;fontStyle=0;overflow=hidden;whiteSpace=wrap;html=1;" vertex="1" parent="t7EN4lz90MW7jezC_zGg-298">
          <mxGeometry width="30" height="30" as="geometry">
            <mxRectangle width="30" height="30" as="alternateBounds" />
          </mxGeometry>
        </mxCell>
        <mxCell id="t7EN4lz90MW7jezC_zGg-300" value="id" style="shape=partialRectangle;connectable=0;fillColor=none;top=0;left=0;bottom=0;right=0;align=left;spacingLeft=6;fontStyle=4;overflow=hidden;whiteSpace=wrap;html=1;" vertex="1" parent="t7EN4lz90MW7jezC_zGg-298">
          <mxGeometry x="30" width="150" height="30" as="geometry">
            <mxRectangle width="150" height="30" as="alternateBounds" />
          </mxGeometry>
        </mxCell>
        <mxCell id="t7EN4lz90MW7jezC_zGg-301" value="" style="shape=tableRow;horizontal=0;startSize=0;swimlaneHead=0;swimlaneBody=0;fillColor=none;collapsible=0;dropTarget=0;points=[[0,0.5],[1,0.5]];portConstraint=eastwest;top=0;left=0;right=0;bottom=0;fontStyle=0" vertex="1" parent="t7EN4lz90MW7jezC_zGg-297">
          <mxGeometry y="60" width="180" height="30" as="geometry" />
        </mxCell>
        <mxCell id="t7EN4lz90MW7jezC_zGg-302" value="" style="shape=partialRectangle;connectable=0;fillColor=none;top=0;left=0;bottom=0;right=0;editable=1;overflow=hidden;whiteSpace=wrap;html=1;fontStyle=0" vertex="1" parent="t7EN4lz90MW7jezC_zGg-301">
          <mxGeometry width="30" height="30" as="geometry">
            <mxRectangle width="30" height="30" as="alternateBounds" />
          </mxGeometry>
        </mxCell>
        <mxCell id="t7EN4lz90MW7jezC_zGg-303" value="name" style="shape=partialRectangle;connectable=0;fillColor=none;top=0;left=0;bottom=0;right=0;align=left;spacingLeft=6;overflow=hidden;whiteSpace=wrap;html=1;fontStyle=0" vertex="1" parent="t7EN4lz90MW7jezC_zGg-301">
          <mxGeometry x="30" width="150" height="30" as="geometry">
            <mxRectangle width="150" height="30" as="alternateBounds" />
          </mxGeometry>
        </mxCell>
        <mxCell id="t7EN4lz90MW7jezC_zGg-307" style="edgeStyle=orthogonalEdgeStyle;rounded=0;orthogonalLoop=1;jettySize=auto;html=1;endArrow=ERone;endFill=0;startArrow=ERzeroToMany;startFill=0;entryX=1;entryY=0.5;entryDx=0;entryDy=0;exitX=0;exitY=0.5;exitDx=0;exitDy=0;" edge="1" parent="1" source="t7EN4lz90MW7jezC_zGg-236" target="t7EN4lz90MW7jezC_zGg-298">
          <mxGeometry relative="1" as="geometry">
            <mxPoint x="1456" y="734" as="sourcePoint" />
            <mxPoint x="1277" y="330" as="targetPoint" />
            <Array as="points">
              <mxPoint x="1205" y="440" />
              <mxPoint x="1205" y="519" />
            </Array>
          </mxGeometry>
        </mxCell>
      </root>
    </mxGraphModel>
  </diagram>
</mxfile>
